<?xml version="1.0" encoding="iso-8859-1"?>
<!-- Generator: Adobe Illustrator 19.0.0, SVG Export Plug-In . SVG Version: 6.00 Build 0)  -->
<svg version="1.1" id="Layer_1" xmlns="http://www.w3.org/2000/svg" xmlns:xlink="http://www.w3.org/1999/xlink" x="0px" y="0px"
	 viewBox="0 0 371.977 371.977" style="enable-background:new 0 0 371.977 371.977;" xml:space="preserve">
<g>
	<path style="fill:#A3382A;" d="M27.765,309.989c-7.317,0-13.248-5.932-13.248-13.249c0-29.099,23.673-52.772,52.772-52.772
		c7.317,0,13.249,5.931,13.249,13.249c0,7.317-5.931,13.249-13.249,13.249c-14.488,0-26.275,11.787-26.275,26.275
		C41.013,304.057,35.081,309.989,27.765,309.989z"/>
	<path style="fill:#A3382A;" d="M344.214,309.989c-7.317,0-13.249-5.932-13.249-13.249c0-14.488-11.787-26.275-26.275-26.275
		c-7.317,0-13.249-5.931-13.249-13.249c0-7.317,5.931-13.249,13.249-13.249c29.099,0,52.772,23.673,52.772,52.772
		C357.462,304.057,351.531,309.989,344.214,309.989z"/>
	<path style="fill:#E94F3D;" d="M246.293,160.285c39.865,0,72.182,32.317,72.182,72.182s-32.317,72.182-72.182,72.182H125.685
		c-39.865,0-72.182-32.317-72.182-72.182s32.317-72.182,72.182-72.182H246.293z"/>
	<g>
		<rect x="127.5" y="136.072" style="fill:#E97A6E;" width="18.3" height="37.005"/>
		<path style="fill:#333E48;" d="M153.097,131.808c0,9.083-7.364,16.447-16.447,16.447s-16.446-7.363-16.446-16.447v-12.792
			c0-9.084,7.363-16.447,16.446-16.447s16.447,7.363,16.447,16.447V131.808z"/>
	</g>
	<g>
		<rect x="226.179" y="136.072" style="fill:#E97A6E;" width="18.3" height="37.005"/>
		<path style="fill:#333E48;" d="M218.881,131.808c0,9.083,7.364,16.447,16.447,16.447c9.083,0,16.446-7.363,16.446-16.447v-12.792
			c0-9.084-7.363-16.447-16.446-16.447s-16.447,7.363-16.447,16.447V131.808z"/>
	</g>
	<g>
		<path style="fill:#A3382A;" d="M309.777,220.589c-3.391,0-6.781-1.293-9.368-3.88c-5.174-5.174-5.174-13.562,0-18.736
			c14.369-14.37,14.369-37.749,0-52.118c-5.174-5.174-5.174-13.563,0-18.736c5.173-5.174,13.563-5.174,18.736,0
			c24.7,24.7,24.7,64.891,0,89.59C316.558,219.296,313.168,220.589,309.777,220.589z"/>
		<path style="fill:#E94F3D;" d="M349.091,115.048c12.845,12.846,12.845,33.672,0,46.518c-12.846,12.846-33.673,12.846-46.519-0.001
			l-23.258-23.258c-25.692-25.691-25.692-67.344,0-93.036L349.091,115.048z"/>
		<path style="fill:#A3382A;" d="M294.923,127.045c-6.215,17.072,2.588,35.947,19.658,42.161
			c17.072,6.213,35.948-2.589,42.161-19.66l11.251-30.91c12.424-34.141-5.179-71.892-39.319-84.319L294.923,127.045z"/>
	</g>
	<g>
		<path style="fill:#A3382A;" d="M62.201,220.589c-3.391,0-6.781-1.293-9.368-3.88c-24.7-24.7-24.7-64.89,0-89.59
			c5.174-5.174,13.563-5.174,18.736,0c5.174,5.174,5.174,13.562,0,18.736c-14.369,14.369-14.369,37.749,0,52.118
			c5.174,5.174,5.174,13.562,0,18.736C68.982,219.296,65.592,220.589,62.201,220.589z"/>
		<path style="fill:#E94F3D;" d="M22.887,115.048c-12.845,12.846-12.845,33.672,0,46.518s33.673,12.846,46.519-0.001l23.258-23.258
			c25.692-25.691,25.692-67.344,0-93.036L22.887,115.048z"/>
		<path style="fill:#A3382A;" d="M77.055,127.045c6.215,17.072-2.588,35.947-19.658,42.161c-17.072,6.213-35.947-2.589-42.161-19.66
			l-11.252-30.91c-12.423-34.141,5.18-71.892,39.321-84.319L77.055,127.045z"/>
	</g>
	<path style="fill:#E97A6E;" d="M318.475,232.467c0,39.865-32.317,72.182-72.182,72.182H125.685
		c-39.865,0-72.182-32.317-72.182-72.182L318.475,232.467L318.475,232.467z"/>
	<path style="fill:#A3382A;" d="M320.334,337.66c-7.317,0-13.249-5.932-13.249-13.249c0-14.488-11.787-26.275-26.275-26.275
		c-7.317,0-13.249-5.931-13.249-13.249c0-7.317,5.932-13.249,13.249-13.249c29.099,0,52.773,23.674,52.773,52.772
		C333.583,331.728,327.652,337.66,320.334,337.66z"/>
	<path style="fill:#A3382A;" d="M51.644,337.66c-7.317,0-13.249-5.932-13.249-13.249c0-29.099,23.674-52.772,52.773-52.772
		c7.317,0,13.248,5.932,13.248,13.249s-5.932,13.249-13.248,13.249c-14.488,0-26.275,11.787-26.275,26.275
		C64.892,331.728,58.961,337.66,51.644,337.66z"/>
	<path style="fill:#A3382A;" d="M185.989,245.523c-13.28,0-24.046,10.767-24.046,24.047v35.079h48.093V269.57
		C210.036,256.29,199.269,245.523,185.989,245.523z"/>
</g>
<g>
</g>
<g>
</g>
<g>
</g>
<g>
</g>
<g>
</g>
<g>
</g>
<g>
</g>
<g>
</g>
<g>
</g>
<g>
</g>
<g>
</g>
<g>
</g>
<g>
</g>
<g>
</g>
<g>
</g>
</svg>
